<svg width="38" height="38" viewBox="0 0 38 38" fill="none" xmlns="http://www.w3.org/2000/svg">
<path d="M15.2222 5.77778L19 2M11.4444 26.5556L26.5556 11.4444M19 36L22.7778 32.2222M27.5 32.2222C28.7524 32.2222 29.9535 31.7247 30.8391 30.8391C31.7247 29.9535 32.2222 28.7524 32.2222 27.5C32.2222 26.2476 31.7247 25.0465 30.8391 24.1609C29.9535 23.2753 28.7524 22.7778 27.5 22.7778C26.2476 22.7778 25.0465 23.2753 24.1609 24.1609C23.2753 25.0465 22.7778 26.2476 22.7778 27.5C22.7778 28.7524 23.2753 29.9535 24.1609 30.8391C25.0465 31.7247 26.2476 32.2222 27.5 32.2222ZM10.5 15.2222C11.7524 15.2222 12.9535 14.7247 13.8391 13.8391C14.7247 12.9535 15.2222 11.7524 15.2222 10.5C15.2222 9.24759 14.7247 8.04647 13.8391 7.16088C12.9535 6.2753 11.7524 5.77778 10.5 5.77778C9.24759 5.77778 8.04647 6.2753 7.16088 7.16088C6.2753 8.04647 5.77778 9.24759 5.77778 10.5C5.77778 11.7524 6.2753 12.9535 7.16088 13.8391C8.04647 14.7247 9.24759 15.2222 10.5 15.2222ZM6.72222 36C7.97463 36 9.17575 35.5025 10.0613 34.6169C10.9469 33.7313 11.4444 32.5302 11.4444 31.2778C11.4444 30.0254 10.9469 28.8243 10.0613 27.9387C9.17575 27.0531 7.97463 26.5556 6.72222 26.5556C5.46981 26.5556 4.2687 27.0531 3.38311 27.9387C2.49752 28.8243 2 30.0254 2 31.2778C2 32.5302 2.49752 33.7313 3.38311 34.6169C4.2687 35.5025 5.46981 36 6.72222 36ZM31.2778 11.4444C32.5302 11.4444 33.7313 10.9469 34.6169 10.0613C35.5025 9.17575 36 7.97463 36 6.72222C36 5.46981 35.5025 4.2687 34.6169 3.38311C33.7313 2.49752 32.5302 2 31.2778 2C30.0254 2 28.8243 2.49752 27.9387 3.38311C27.0531 4.2687 26.5556 5.46981 26.5556 6.72222C26.5556 7.97463 27.0531 9.17575 27.9387 10.0613C28.8243 10.9469 30.0254 11.4444 31.2778 11.4444Z" stroke="#FF7E00" stroke-width="3" stroke-linecap="round" stroke-linejoin="round"/>
</svg>
