<svg width="132" height="27" viewBox="0 0 132 27" fill="none" xmlns="http://www.w3.org/2000/svg">
<path d="M0.860343 21.5524C0.595191 21.4753 0.44277 21.1978 0.5199 20.9326C0.59703 20.6675 0.874505 20.5151 1.13966 20.5922L0.860343 21.5524ZM131.5 21.0723L128.799 26.1748L125.73 21.2841L131.5 21.0723ZM59 1.07235L58.9731 1.57163L59 1.07235ZM1 21.0723L1.13966 20.5922C2.2166 20.9055 3.24695 21.1597 4.23465 21.3596L4.13549 21.8497L4.03633 22.3397C3.01954 22.134 1.96215 21.8729 0.860343 21.5524L1 21.0723ZM10.5117 22.4276L10.4939 21.9279C12.7596 21.8469 14.7725 21.4235 16.6191 20.7503L16.7903 21.2201L16.9616 21.6898C15.0185 22.3981 12.9023 22.8424 10.5296 22.9272L10.5117 22.4276ZM22.4384 18.2045L22.1522 17.7945C23.852 16.6083 25.4707 15.2464 27.1169 13.8093L27.4457 14.186L27.7746 14.5627C26.1231 16.0043 24.4708 17.3958 22.7245 18.6145L22.4384 18.2045ZM32.3038 9.97972L31.9857 9.594C33.6056 8.25786 35.3244 6.95257 37.2168 5.76734L37.4822 6.19109L37.7476 6.61484C35.9038 7.76964 34.2212 9.04635 32.622 10.3654L32.3038 9.97972ZM43.2055 3.30253L43.0247 2.83635C44.9317 2.09694 47.0066 1.49966 49.2937 1.09414L49.381 1.58645L49.4683 2.07878C47.246 2.47283 45.2336 3.05243 43.3862 3.76871L43.2055 3.30253ZM55.7798 1.00371L55.7734 0.50375C56.8195 0.490379 57.9031 0.512545 59.0269 0.573078L59 1.07235L58.9731 1.57163C57.8708 1.51225 56.8093 1.49059 55.7862 1.50367L55.7798 1.00371ZM59 1.07235L59.0269 0.573078C60.008 0.625929 60.9689 0.701538 61.9103 0.79841L61.8591 1.29578L61.8079 1.79316C60.8827 1.69796 59.9381 1.62361 58.9731 1.57163L59 1.07235ZM67.5057 2.16897L67.6077 1.67948C69.5505 2.08412 71.4032 2.58033 73.1755 3.1508L73.0223 3.62675L72.8691 4.1027C71.1294 3.54273 69.3109 3.05568 67.4038 2.65847L67.5057 2.16897ZM78.357 5.6548L78.5581 5.19703C80.3599 5.98857 82.0736 6.84949 83.713 7.75534L83.4712 8.19297L83.2294 8.63061C81.6135 7.73774 79.9269 6.89061 78.1559 6.11258L78.357 5.6548ZM88.3623 11.1403L88.6346 10.721C90.2768 11.7874 91.8474 12.8773 93.3633 13.958L93.0731 14.3652L92.7828 14.7723C91.2736 13.6963 89.7157 12.6154 88.09 11.5597L88.3623 11.1403ZM97.7026 17.7127L97.9954 17.3074C99.5894 18.4588 101.137 19.5554 102.666 20.5562L102.392 20.9746L102.118 21.3929C100.569 20.3791 99.0069 19.2717 97.4098 18.118L97.7026 17.7127ZM107.331 23.8377L107.551 23.3887C109.279 24.2356 111.013 24.895 112.793 25.3072L112.68 25.7943L112.567 26.2814C110.698 25.8485 108.892 25.1594 107.111 24.2867L107.331 23.8377ZM118.347 26.2415L118.31 25.7429C120.033 25.615 121.834 25.2368 123.743 24.5577L123.91 25.0287L124.078 25.4998C122.092 26.2067 120.202 26.6051 118.384 26.7401L118.347 26.2415Z" fill="#595959"/>
</svg>
