<svg width="132" height="27" viewBox="0 0 132 27" fill="none" xmlns="http://www.w3.org/2000/svg">
<path d="M0.860343 5.74058C0.595191 5.81771 0.44277 6.09519 0.5199 6.36034C0.59703 6.62549 0.874505 6.77792 1.13966 6.70078L0.860343 5.74058ZM131.5 6.22068L128.799 1.11813L125.73 6.00883L131.5 6.22068ZM59 26.2206L58.9731 25.7213L59 26.2206ZM1 6.22068L1.13966 6.70078C2.2166 6.38751 3.24695 6.13323 4.23465 5.93337L4.13549 5.4433L4.03633 4.95324C3.01954 5.15898 1.96215 5.42008 0.860343 5.74058L1 6.22068ZM10.5117 4.86542L10.4939 5.3651C12.7596 5.4461 14.7725 5.8695 16.6191 6.54266L16.7903 6.0729L16.9616 5.60314C15.0185 4.89482 12.9023 4.45056 10.5296 4.36574L10.5117 4.86542ZM22.4384 9.08846L22.1522 9.49849C23.852 10.6847 25.4707 12.0466 27.1169 13.4837L27.4457 13.107L27.7746 12.7303C26.1231 11.2886 24.4708 9.89712 22.7245 8.67844L22.4384 9.08846ZM32.3038 17.3132L31.9857 17.699C33.6056 19.0351 35.3244 20.3404 37.2168 21.5256L37.4822 21.1019L37.7476 20.6781C35.9038 19.5233 34.2212 18.2466 32.622 16.9275L32.3038 17.3132ZM43.2055 23.9904L43.0247 24.4566C44.9317 25.196 47.0066 25.7933 49.2937 26.1988L49.381 25.7065L49.4683 25.2142C47.246 24.8201 45.2336 24.2405 43.3862 23.5243L43.2055 23.9904ZM55.7798 26.2893L55.7734 26.7892C56.8195 26.8026 57.9031 26.7804 59.0269 26.7199L59 26.2206L58.9731 25.7213C57.8708 25.7807 56.8093 25.8024 55.7862 25.7893L55.7798 26.2893ZM59 26.2206L59.0269 26.7199C60.008 26.667 60.9689 26.5914 61.9103 26.4946L61.8591 25.9972L61.8079 25.4998C60.8827 25.595 59.9381 25.6694 58.9731 25.7213L59 26.2206ZM67.5057 25.124L67.6077 25.6135C69.5505 25.2089 71.4032 24.7126 73.1755 24.1422L73.0223 23.6662L72.8691 23.1903C71.1294 23.7502 69.3109 24.2373 67.4038 24.6345L67.5057 25.124ZM78.357 21.6382L78.5581 22.0959C80.3599 21.3044 82.0736 20.4435 83.713 19.5376L83.4712 19.1L83.2294 18.6624C81.6135 19.5552 79.9269 20.4024 78.1559 21.1804L78.357 21.6382ZM88.3623 16.1526L88.6346 16.572C90.2768 15.5056 91.8474 14.4157 93.3633 13.3349L93.0731 12.9278L92.7828 12.5207C91.2736 13.5966 89.7157 14.6776 88.09 15.7333L88.3623 16.1526ZM97.7026 9.58026L97.9954 9.98558C99.5894 8.83419 101.137 7.73761 102.666 6.7368L102.392 6.31841L102.118 5.90003C100.569 6.91382 99.0069 8.02131 97.4098 9.17494L97.7026 9.58026ZM107.331 3.45524L107.551 3.90422C109.279 3.05732 111.013 2.39801 112.793 1.9858L112.68 1.4987L112.567 1.0116C110.698 1.44451 108.892 2.13354 107.111 3.00626L107.331 3.45524ZM118.347 1.05148L118.31 1.55011C120.033 1.67801 121.834 2.05613 123.743 2.73532L123.91 2.26427L124.078 1.79322C122.092 1.08625 120.202 0.687838 118.384 0.55285L118.347 1.05148Z" fill="#595959"/>
</svg>
