<svg width="50" height="28" viewBox="0 0 50 28" fill="none" xmlns="http://www.w3.org/2000/svg">
<path d="M48.2143 0.714233V12.3214C48.2143 13.7982 47.0125 14.9999 45.5357 14.9999V5.17852C45.5357 2.71691 43.533 0.714233 41.0714 0.714233H36.6071C36.1143 0.714233 35.7143 1.11423 35.7143 1.60709V5.17852V6.07138V6.96423H28.5714C28.0786 6.96423 27.6786 7.36423 27.6786 7.85709V10.5357H22.3214V7.85709C22.3214 7.36423 21.9214 6.96423 21.4286 6.96423H14.2857V6.07138V5.17852V1.60709C14.2857 1.11423 13.8857 0.714233 13.3929 0.714233H8.92857C6.46696 0.714233 4.46429 2.71691 4.46429 5.17852V14.9999C2.9875 14.9999 1.78571 13.7982 1.78571 12.3214V0.714233H0V12.3214C0 14.1473 1.10446 15.716 2.67857 16.4071V27.4999H4.46429V16.7857H5.35714H6.25H13.3929V26.6071C13.3929 27.0999 13.7929 27.4999 14.2857 27.4999H16.9643H17.8571H18.75V26.6071V13.2142V12.3214H21.4286H28.5714H31.25V13.2142V26.6071V27.4999H32.1429H33.0357H35.7143C36.2071 27.4999 36.6071 27.0999 36.6071 26.6071V16.7857H43.75H44.6429H45.5357V27.4999H47.3214V16.4071C48.8955 15.716 50 14.1473 50 12.3214V0.714233H48.2143ZM17.8571 10.5357H16.0714H10.7143V5.17852H8.92857V11.4285C8.92857 11.9214 9.32857 12.3214 9.82143 12.3214H16.0714C16.5634 12.3214 16.9643 12.7223 16.9643 13.2142V25.7142H15.1786V15.8928C15.1786 15.3999 14.7786 14.9999 14.2857 14.9999H6.25V5.17852C6.25 3.70173 7.45179 2.49995 8.92857 2.49995H12.5V5.17852V6.07138V7.85709C12.5 8.34995 12.9 8.74995 13.3929 8.74995H20.5357V10.5357H17.8571ZM35.7143 14.9999C35.2214 14.9999 34.8214 15.3999 34.8214 15.8928V25.7142H33.0357V13.2142C33.0357 12.7223 33.4366 12.3214 33.9286 12.3214H40.1786C40.6714 12.3214 41.0714 11.9214 41.0714 11.4285V5.17852H39.2857V10.5357H33.9286H32.1429H29.4643V8.74995H36.6071C37.1 8.74995 37.5 8.34995 37.5 7.85709V6.07138V5.17852V2.49995H41.0714C42.5482 2.49995 43.75 3.70173 43.75 5.17852V14.9999H35.7143Z" fill="#FF7E00"/>
</svg>
