<svg width="32" height="33" viewBox="0 0 32 33" fill="none" xmlns="http://www.w3.org/2000/svg">
<path d="M25.9204 22.3549L26.9037 21.3716L26.1282 20.5962L25.145 21.5795L24.1102 20.5447C24.9415 19.0481 25.4192 17.3295 25.4192 15.5001C25.4192 15.3438 25.4027 15.1919 25.3956 15.0372C27.9725 14.4312 29.8063 12.15 29.8063 9.4678H28.7095C28.7095 11.5857 27.2957 13.397 25.2887 13.9366C24.5302 8.93202 20.2122 5.0807 14.9998 5.0807C14.8435 5.0807 14.6916 5.09715 14.537 5.10428C13.931 2.52741 11.6497 0.693604 8.96755 0.693604V1.79038C11.0854 1.79038 12.8967 3.20412 13.4364 5.21122C8.43178 5.96964 4.58046 10.2876 4.58046 15.5001C4.58046 15.6563 4.59691 15.8082 4.60404 15.9629C2.02717 16.5689 0.193359 18.8502 0.193359 21.5323H1.29013C1.29013 19.4144 2.70388 17.6031 4.71097 17.0635C5.46939 22.0681 9.78739 25.9194 14.9998 25.9194C16.8292 25.9194 18.5479 25.4418 20.0439 24.6104L21.0787 25.6452L20.0954 26.6285L20.8708 27.4039L21.8541 26.4206L27.0917 31.6583C27.6346 32.2012 28.3569 32.5001 29.1246 32.5001C30.71 32.5001 31.9998 31.2102 31.9998 29.6254C31.9998 28.8577 31.7009 28.1354 31.158 27.5925L25.9204 22.3549ZM14.9998 6.17747C19.6776 6.17747 23.5497 9.64328 24.2116 14.1401L23.1307 14.3199C22.556 10.3425 19.1341 7.27425 14.9998 7.27425C14.9718 7.27425 14.9444 7.27809 14.9165 7.27864L14.7355 6.19118C14.8243 6.18844 14.9104 6.17747 14.9998 6.17747ZM14.9998 8.37102C18.9307 8.37102 22.1288 11.5692 22.1288 15.5001C22.1288 19.4309 18.9307 22.6291 14.9998 22.6291C11.069 22.6291 7.87078 19.4309 7.87078 15.5001C7.87078 11.5692 11.069 8.37102 14.9998 8.37102ZM5.67723 15.5001C5.67723 10.8223 9.14304 6.95015 13.6398 6.28825L13.8197 7.36912C9.84223 7.94383 6.774 11.3658 6.774 15.5001C6.774 15.528 6.77784 15.5554 6.77839 15.5834L5.69094 15.7644C5.6882 15.6755 5.67723 15.5894 5.67723 15.5001ZM14.9998 24.8226C10.3221 24.8226 6.44991 21.3568 5.788 16.8601L6.86888 16.6802C7.44359 20.6576 10.8655 23.7259 14.9998 23.7259C19.5355 23.7259 23.2256 20.0358 23.2256 15.5001C23.2256 15.4721 23.2218 15.4447 23.2212 15.4167L24.3087 15.2357C24.3114 15.3246 24.3224 15.4107 24.3224 15.5001C24.3224 20.6406 20.1404 24.8226 14.9998 24.8226ZM20.9937 24.0088C21.9687 23.3201 22.8198 22.469 23.5086 21.4939L24.3696 22.3549L21.8547 24.8698L20.9937 24.0088ZM29.1252 31.4033C28.6503 31.4033 28.2033 31.2185 27.8677 30.8829L22.6301 25.6452L25.145 23.1303L30.3826 28.368C30.7182 28.7036 30.903 29.1505 30.903 29.6254C30.903 30.6059 30.1057 31.4033 29.1252 31.4033Z" fill="#FF7E00"/>
</svg>
