<svg width="121" height="121" viewBox="0 0 121 121" fill="none" xmlns="http://www.w3.org/2000/svg">
<path d="M27.0658 0C30.6201 0 34.1397 0.700078 37.4234 2.06026C40.7072 3.42044 43.6909 5.4141 46.2042 7.92739C48.7175 10.4407 50.7111 13.4244 52.0713 16.7082C53.4315 19.9919 54.1316 23.5115 54.1316 27.0658V54.1316H27.0658C19.8875 54.1316 13.0032 51.28 7.9274 46.2042C2.85158 41.1284 1.15678e-05 34.2441 1.15678e-05 27.0658C1.15678e-05 19.8875 2.85158 13.0032 7.9274 7.92739C13.0032 2.85157 19.8875 0 27.0658 0ZM41.3947 41.3947V27.0658C41.3947 24.2318 40.5544 21.4614 38.9799 19.1051C37.4054 16.7487 35.1675 14.9121 32.5492 13.8276C29.931 12.743 27.0499 12.4593 24.2704 13.0122C21.4908 13.5651 18.9376 14.9298 16.9337 16.9337C14.9298 18.9376 13.5651 21.4908 13.0122 24.2703C12.4593 27.0499 12.7431 29.931 13.8276 32.5492C14.9121 35.1675 16.7487 37.4054 19.1051 38.9799C21.4614 40.5544 24.2318 41.3947 27.0658 41.3947H41.3947ZM27.0658 66.8684H54.1316V93.9342C54.1316 99.2873 52.5442 104.52 49.5702 108.971C46.5961 113.422 42.369 116.891 37.4234 118.94C32.4778 120.988 27.0358 121.524 21.7855 120.48C16.5353 119.436 11.7126 116.858 7.9274 113.073C4.14218 109.287 1.56441 104.465 0.520074 99.2145C-0.524266 93.9642 0.0117271 88.5222 2.06027 83.5766C4.10882 78.631 7.57791 74.4039 12.0289 71.4298C16.4798 68.4558 21.7127 66.8684 27.0658 66.8684ZM27.0658 79.6053C24.2318 79.6053 21.4614 80.4456 19.1051 82.0201C16.7487 83.5946 14.9121 85.8325 13.8276 88.4508C12.7431 91.069 12.4593 93.9501 13.0122 96.7296C13.5651 99.5092 14.9298 102.062 16.9337 104.066C18.9376 106.07 21.4908 107.435 24.2704 107.988C27.0499 108.541 29.931 108.257 32.5492 107.172C35.1675 106.088 37.4054 104.251 38.9799 101.895C40.5544 99.5386 41.3947 96.7682 41.3947 93.9342V79.6053H27.0658ZM93.9342 0C101.112 0 107.997 2.85157 113.073 7.92739C118.148 13.0032 121 19.8875 121 27.0658C121 34.2441 118.148 41.1284 113.073 46.2042C107.997 51.28 101.112 54.1316 93.9342 54.1316H66.8684V27.0658C66.8684 19.8875 69.72 13.0032 74.7958 7.92739C79.8716 2.85157 86.7559 0 93.9342 0ZM93.9342 41.3947C96.7682 41.3947 99.5386 40.5544 101.895 38.9799C104.251 37.4054 106.088 35.1675 107.172 32.5492C108.257 29.931 108.541 27.0499 107.988 24.2703C107.435 21.4908 106.07 18.9376 104.066 16.9337C102.062 14.9298 99.5092 13.5651 96.7296 13.0122C93.9501 12.4593 91.069 12.743 88.4508 13.8276C85.8325 14.9121 83.5946 16.7487 82.0201 19.1051C80.4456 21.4614 79.6053 24.2318 79.6053 27.0658V41.3947H93.9342ZM66.8684 66.8684H93.9342C99.2873 66.8684 104.52 68.4558 108.971 71.4298C113.422 74.4039 116.891 78.631 118.94 83.5766C120.988 88.5222 121.524 93.9642 120.48 99.2145C119.436 104.465 116.858 109.287 113.073 113.073C109.287 116.858 104.465 119.436 99.2145 120.48C93.9642 121.524 88.5222 120.988 83.5766 118.94C78.631 116.891 74.4039 113.422 71.4298 108.971C68.4558 104.52 66.8684 99.2873 66.8684 93.9342V66.8684ZM79.6053 79.6053V93.9342C79.6053 96.7682 80.4456 99.5386 82.0201 101.895C83.5946 104.251 85.8325 106.088 88.4508 107.172C91.069 108.257 93.9501 108.541 96.7296 107.988C99.5092 107.435 102.062 106.07 104.066 104.066C106.07 102.062 107.435 99.5092 107.988 96.7296C108.541 93.9501 108.257 91.069 107.172 88.4508C106.088 85.8325 104.251 83.5946 101.895 82.0201C99.5386 80.4456 96.7682 79.6053 93.9342 79.6053H79.6053Z" fill="#FF7E00"/>
</svg>
