<svg width="1180" height="527" viewBox="0 0 1180 527" fill="none" xmlns="http://www.w3.org/2000/svg">
<path opacity="0.2" d="M1 526C20.1549 440.938 329.481 438.446 345.208 278.128C378.294 -59.1393 1203.27 657.191 1276.83 466.267C1423.69 85.1136 2970.79 145.795 3006 85.1138M68.3324 235.885C110.512 313.091 246.879 440.521 454.913 332.596C714.956 197.689 855.425 -68.8749 1160.74 18.0833C1466.06 105.042 1803.88 434.182 1966.41 226.133M4.20609 501.464C24.4574 424.129 325.547 427.824 350.432 270.001C394.325 -57.6301 1186.71 611.896 1271.31 434.204C1425.71 75.3418 2915.22 148.807 2956.5 81.1082M7.41275 476.929C28.7605 407.321 321.614 417.202 355.656 261.874C410.357 -56.1209 1170.14 566.601 1265.78 402.141C1427.72 65.5701 2859.65 151.819 2906.99 77.1027M10.6188 452.393C33.063 390.512 317.681 406.58 360.88 253.747C426.388 -54.6118 1153.58 521.305 1260.25 370.079C1429.74 55.7983 2804.09 154.831 2857.49 73.0972M13.8255 427.858C37.366 373.704 313.748 395.959 366.105 245.621C442.42 -53.1018 1137.02 476.011 1254.72 338.017C1431.76 46.0273 2748.52 157.844 2807.98 69.0924M17.0316 403.322C41.6685 356.895 309.814 385.337 371.328 237.494C458.452 -51.5926 1120.45 430.716 1249.19 305.954C1433.78 36.2555 2692.95 160.856 2758.48 65.0869M20.2377 378.786C45.971 340.087 305.88 374.715 376.552 229.367C474.483 -50.0835 1103.89 385.42 1243.66 273.891C1435.79 26.4838 2637.39 163.868 2708.97 61.0814M23.4443 354.251C50.2741 323.278 301.947 364.093 381.777 221.24C490.515 -48.5743 1087.32 340.125 1238.14 241.828C1437.81 16.712 2581.82 166.88 2659.47 57.0759M26.6504 329.715C54.5766 306.469 298.014 353.471 387.001 213.113C506.546 -47.0651 1070.76 294.83 1232.61 209.765C1439.83 6.94022 2526.25 169.892 2609.97 53.0703M29.8565 305.179C58.8791 289.661 294.08 342.85 392.224 204.986C522.577 -45.5559 1054.19 249.534 1227.08 177.703C1441.85 -2.83157 2470.68 172.904 2560.46 49.0648M33.0632 280.644C63.1822 272.852 290.147 332.228 397.449 196.859C538.609 -44.0468 1037.63 204.239 1221.55 145.64C1443.87 -12.6034 2415.12 175.916 2510.96 45.0593M36.2693 256.109C67.4847 256.044 286.213 321.607 402.673 188.733C554.641 -42.5368 1021.07 158.945 1216.02 113.578C1445.88 -22.3743 2359.55 178.929 2461.45 41.0545M39.4759 231.573C71.7877 239.236 282.28 310.985 407.897 180.606C570.672 -41.0276 1004.5 113.649 1210.5 81.515C1447.9 -32.1461 2303.99 181.941 2411.95 37.049M42.682 213.102C76.0902 228.491 278.347 306.427 413.121 178.543C586.704 -33.4538 987.938 74.4186 1204.97 55.5168C1449.92 -35.8533 2248.42 191.017 2362.44 39.1081M45.8881 206.994C80.3927 230.111 274.413 314.234 418.345 188.844C602.735 -13.5167 971.374 47.5512 1199.44 41.8819C1451.94 -27.1971 2192.85 212.457 2312.94 53.5305M49.0948 203.561C84.6958 234.405 270.48 324.715 423.569 201.82C618.767 9.09552 954.81 23.359 1193.91 30.9222C1453.95 -15.8658 2137.28 236.572 2263.44 70.628M52.3008 206.697C88.9983 245.268 266.546 341.764 428.793 221.365C634.798 38.2763 938.246 5.73531 1188.38 26.531C1455.97 2.03406 2081.72 267.256 2213.93 94.2941M55.5069 212.441C93.3008 258.739 262.613 361.422 434.017 243.517C650.83 70.065 921.682 -9.2805 1182.86 24.7477C1457.99 22.5418 2026.15 300.547 2164.43 120.568M58.7136 218.272C97.6039 272.296 258.68 381.166 439.241 265.756C666.861 101.94 905.118 -24.2096 1177.33 23.0511C1460.01 43.1362 1970.58 333.926 2114.92 146.929M61.9197 224.131C101.906 285.883 254.746 400.94 444.465 288.024C682.893 133.845 888.553 -39.1096 1171.8 21.3836C1462.03 63.7597 1915.02 367.333 2065.42 173.319M65.1263 230.005C106.209 299.483 250.813 420.727 449.69 310.306C698.925 165.763 871.99 -53.9959 1166.27 19.7298C1464.04 84.397 1859.45 400.754 2015.91 199.722" stroke="black"/>
</svg>
