<svg width="1444" height="527" viewBox="0 0 1444 527" fill="none" xmlns="http://www.w3.org/2000/svg">
<path opacity="0.2" d="M-314 526C-294.845 440.938 14.481 438.446 30.208 278.128C63.2938 -59.1393 888.272 657.191 961.833 466.267C1108.69 85.1136 2655.79 145.795 2691 85.1138M-246.668 235.885C-204.488 313.091 -68.1205 440.521 139.913 332.596C399.956 197.689 540.425 -68.8749 845.743 18.0833C1151.06 105.042 1488.88 434.182 1651.41 226.133M-310.794 501.464C-290.543 424.129 10.5474 427.824 35.4319 270.001C79.3251 -57.6301 871.708 611.896 956.305 434.204C1110.71 75.3418 2600.22 148.807 2641.5 81.1082M-307.587 476.929C-286.24 407.321 6.61436 417.202 40.6563 261.874C95.357 -56.1209 855.144 566.601 950.777 402.141C1112.72 65.5701 2544.65 151.819 2591.99 77.1027M-304.381 452.393C-281.937 390.512 2.68071 406.58 45.8802 253.747C111.388 -54.6118 838.58 521.305 945.249 370.079C1114.74 55.7983 2489.09 154.831 2542.49 73.0972M-301.175 427.858C-277.634 373.704 -1.25233 395.959 51.1046 245.621C127.42 -53.1018 822.016 476.011 939.721 338.017C1116.76 46.0273 2433.52 157.844 2492.98 69.0924M-297.968 403.322C-273.331 356.895 -5.18596 385.337 56.3284 237.494C143.452 -51.5926 805.452 430.716 934.193 305.954C1118.78 36.2555 2377.95 160.856 2443.48 65.0869M-294.762 378.786C-269.029 340.087 -9.11962 374.715 61.5523 229.367C159.483 -50.0835 788.887 385.42 928.665 273.891C1120.79 26.4838 2322.39 163.868 2393.97 61.0814M-291.556 354.251C-264.726 323.278 -13.0527 364.093 66.7767 221.24C175.515 -48.5743 772.324 340.125 923.137 241.828C1122.81 16.712 2266.82 166.88 2344.47 57.0759M-288.35 329.715C-260.423 306.469 -16.9863 353.471 72.0005 213.113C191.546 -47.0651 755.759 294.83 917.609 209.765C1124.83 6.94022 2211.25 169.892 2294.97 53.0703M-285.143 305.179C-256.121 289.661 -20.9199 342.85 77.2244 204.986C207.577 -45.5559 739.195 249.534 912.08 177.703C1126.85 -2.83157 2155.68 172.904 2245.46 49.0648M-281.937 280.644C-251.818 272.852 -24.853 332.228 82.4488 196.859C223.609 -44.0468 722.631 204.239 906.553 145.64C1128.87 -12.6034 2100.12 175.916 2195.96 45.0593M-278.731 256.109C-247.515 256.044 -28.7866 321.607 87.6727 188.733C239.641 -42.5368 706.067 158.945 901.024 113.578C1130.88 -22.3743 2044.55 178.929 2146.45 41.0545M-275.524 231.573C-243.212 239.236 -32.7196 310.985 92.8971 180.606C255.672 -41.0276 689.503 113.649 895.496 81.515C1132.9 -32.1461 1988.99 181.941 2096.95 37.049M-272.318 213.102C-238.91 228.491 -36.6532 306.427 98.1209 178.543C271.704 -33.4538 672.938 74.4186 889.968 55.5168C1134.92 -35.8533 1933.42 191.017 2047.44 39.1081M-269.112 206.994C-234.607 230.111 -40.5869 314.234 103.345 188.844C287.735 -13.5167 656.374 47.5512 884.44 41.8819C1136.94 -27.1971 1877.85 212.457 1997.94 53.5305M-265.905 203.561C-230.304 234.405 -44.5199 324.715 108.569 201.82C303.767 9.09552 639.81 23.359 878.912 30.9222C1138.95 -15.8658 1822.28 236.572 1948.44 70.628M-262.699 206.697C-226.002 245.268 -48.4536 341.764 113.793 221.365C319.798 38.2763 623.246 5.73531 873.384 26.531C1140.97 2.03406 1766.72 267.256 1898.93 94.2941M-259.493 212.441C-221.699 258.739 -52.3872 361.422 119.017 243.517C335.83 70.065 606.682 -9.2805 867.855 24.7477C1142.99 22.5418 1711.15 300.547 1849.43 120.568M-256.286 218.272C-217.396 272.296 -56.3202 381.166 124.241 265.756C351.861 101.94 590.118 -24.2096 862.327 23.0511C1145.01 43.1362 1655.58 333.926 1799.92 146.929M-253.08 224.131C-213.094 285.883 -60.2538 400.94 129.465 288.024C367.893 133.845 573.553 -39.1096 856.799 21.3836C1147.03 63.7597 1600.02 367.333 1750.42 173.319M-249.874 230.005C-208.791 299.483 -64.1869 420.727 134.69 310.306C383.925 165.763 556.99 -53.9959 851.271 19.7298C1149.04 84.397 1544.45 400.754 1700.91 199.722" stroke="black"/>
</svg>
