<svg width="131" height="28" viewBox="0 0 131 28" fill="none" xmlns="http://www.w3.org/2000/svg">
<path d="M0.360343 6.01939C0.0951915 6.09652 -0.0572302 6.374 0.0199 6.63915C0.0970302 6.9043 0.374505 7.05672 0.639657 6.97959L0.360343 6.01939ZM131 6.49949L128.299 1.39693L125.23 6.28764L131 6.49949ZM58.5 26.4994L58.4731 26.0001L58.5 26.4994ZM0.5 6.49949L0.639657 6.97959C1.7166 6.66632 2.74695 6.41204 3.73465 6.21218L3.63549 5.72211L3.53633 5.23204C2.51954 5.43778 1.46215 5.69889 0.360343 6.01939L0.5 6.49949ZM10.0117 5.14422L9.99386 5.64391C12.2596 5.72491 14.2725 6.14831 16.1191 6.82147L16.2903 6.35171L16.4616 5.88195C14.5185 5.17363 12.4023 4.72937 10.0296 4.64454L10.0117 5.14422ZM21.9384 9.36727L21.6522 9.7773C23.352 10.9635 24.9707 12.3254 26.6169 13.7625L26.9457 13.3858L27.2746 13.0091C25.6231 11.5675 23.9708 10.1759 22.2245 8.95724L21.9384 9.36727ZM31.8038 17.5921L31.4857 17.9778C33.1056 19.3139 34.8244 20.6192 36.7168 21.8044L36.9822 21.3807L37.2476 20.9569C35.4038 19.8021 33.7212 18.5254 32.122 17.2063L31.8038 17.5921ZM42.7055 24.2692L42.5247 24.7354C44.4317 25.4748 46.5066 26.0721 48.7937 26.4776L48.881 25.9853L48.9683 25.493C46.746 25.099 44.7336 24.5194 42.8862 23.8031L42.7055 24.2692ZM55.2798 26.5681L55.2734 27.068C56.3195 27.0814 57.4031 27.0592 58.5269 26.9987L58.5 26.4994L58.4731 26.0001C57.3708 26.0595 56.3093 26.0812 55.2862 26.0681L55.2798 26.5681ZM58.5 26.4994L58.5269 26.9987C59.508 26.9458 60.4689 26.8702 61.4103 26.7734L61.3591 26.276L61.3079 25.7786C60.3827 25.8738 59.4381 25.9482 58.4731 26.0001L58.5 26.4994ZM67.0057 25.4028L67.1077 25.8923C69.0505 25.4877 70.9032 24.9915 72.6755 24.421L72.5223 23.945L72.3691 23.4691C70.6294 24.029 68.8109 24.5161 66.9038 24.9133L67.0057 25.4028ZM77.857 21.917L78.0581 22.3747C79.8599 21.5832 81.5736 20.7223 83.213 19.8164L82.9712 19.3788L82.7294 18.9412C81.1135 19.834 79.4269 20.6812 77.6559 21.4592L77.857 21.917ZM87.8623 16.4314L88.1346 16.8508C89.7768 15.7844 91.3474 14.6945 92.8633 13.6138L92.5731 13.2066L92.2828 12.7995C90.7736 13.8755 89.2157 14.9564 87.59 16.0121L87.8623 16.4314ZM97.2026 9.85907L97.4954 10.2644C99.0894 9.11299 100.637 8.01642 102.166 7.01561L101.892 6.59722L101.618 6.17884C100.069 7.19263 98.5069 8.30012 96.9098 9.45375L97.2026 9.85907ZM106.831 3.73405L107.051 4.18303C108.779 3.33613 110.513 2.67682 112.293 2.26461L112.18 1.77751L112.067 1.29041C110.198 1.72332 108.392 2.41235 106.611 3.28507L106.831 3.73405ZM117.847 1.33029L117.81 1.82892C119.533 1.95682 121.334 2.33494 123.243 3.01413L123.41 2.54308L123.578 2.07202C121.592 1.36506 119.702 0.966647 117.884 0.831659L117.847 1.33029Z" fill="#595959"/>
</svg>
