<svg width="95" height="96" viewBox="0 0 95 96" fill="none" xmlns="http://www.w3.org/2000/svg">
<circle cx="47.5" cy="48" r="47" stroke="#595959" stroke-dasharray="4 4"/>
<path d="M31.5 35.6192H36.5669M36.5669 35.6192C36.5669 36.5791 36.9483 37.4997 37.627 38.1784C38.3057 38.8572 39.2263 39.2385 40.1862 39.2385C41.1461 39.2385 42.0666 38.8572 42.7454 38.1784C43.4241 37.4997 43.8054 36.5791 43.8054 35.6192M36.5669 35.6192C36.5669 34.6594 36.9483 33.7388 37.627 33.0601C38.3057 32.3813 39.2263 32 40.1862 32C41.1461 32 42.0666 32.3813 42.7454 33.0601C43.4241 33.7388 43.8054 34.6594 43.8054 35.6192M54.6632 47.2008C56.199 47.2008 57.6719 46.5907 58.7579 45.5047C59.8438 44.4188 60.454 42.9458 60.454 41.41C60.454 39.8742 59.8438 38.4013 58.7579 37.3153C57.6719 36.2293 56.199 35.6192 54.6632 35.6192H43.8054M38.7385 58.7824C37.2027 58.7824 35.7298 58.1723 34.6438 57.0863C33.5578 56.0003 32.9477 54.5274 32.9477 52.9916C32.9477 51.4558 33.5578 49.9829 34.6438 48.8969C35.7298 47.8109 37.2027 47.2008 38.7385 47.2008H47.4247M45.977 58.7824H54.6632" stroke="#595959" stroke-width="3" stroke-linecap="round" stroke-linejoin="round"/>
<path d="M38.7383 58.7824C38.7383 59.7423 39.1196 60.6628 39.7983 61.3416C40.4771 62.0203 41.3976 62.4016 42.3575 62.4016C43.3174 62.4016 44.238 62.0203 44.9167 61.3416C45.5955 60.6628 45.9768 59.7423 45.9768 58.7824C45.9768 57.8225 45.5955 56.9019 44.9167 56.2232C44.238 55.5444 43.3174 55.1631 42.3575 55.1631C41.3976 55.1631 40.4771 55.5444 39.7983 56.2232C39.1196 56.9019 38.7383 57.8225 38.7383 58.7824ZM47.4245 47.2008C47.4245 48.1607 47.8058 49.0812 48.4845 49.76C49.1633 50.4387 50.0838 50.82 51.0437 50.82C52.0036 50.82 52.9242 50.4387 53.6029 49.76C54.2816 49.0812 54.663 48.1607 54.663 47.2008C54.663 46.2409 54.2816 45.3203 53.6029 44.6416C52.9242 43.9629 52.0036 43.5815 51.0437 43.5815C50.0838 43.5815 49.1633 43.9629 48.4845 44.6416C47.8058 45.3203 47.4245 46.2409 47.4245 47.2008ZM54.8577 61.9731C54.9156 62.3307 55.2594 62.4986 55.5938 62.3604C56.1852 62.1157 57.2391 61.6387 58.8359 60.7766C59.9051 60.1989 60.6094 59.7371 61.069 59.3897C61.643 58.9568 61.6438 58.2532 61.069 57.8196C60.6094 57.4722 59.9051 57.0104 58.8359 56.4335C57.2391 55.5721 56.1852 55.0944 55.5938 54.8497C55.2594 54.7107 54.9163 54.8794 54.8577 55.237C54.765 55.7987 54.663 56.8222 54.663 58.605C54.663 60.3879 54.765 61.4114 54.8577 61.9731Z" stroke="#595959" stroke-width="3" stroke-linecap="round" stroke-linejoin="round"/>
</svg>
