<svg width="95" height="96" viewBox="0 0 95 96" fill="none" xmlns="http://www.w3.org/2000/svg">
<circle cx="47.5" cy="48" r="47" stroke="#595959" stroke-dasharray="4 4"/>
<path d="M49.847 51.9397C47.543 51.9347 45.302 51.1874 43.4561 49.8087V63.9546C43.4561 64.1968 43.5522 64.429 43.7235 64.6002C43.8947 64.7714 44.1269 64.8676 44.369 64.8676H48.934C49.1761 64.8676 49.4084 64.7714 49.5796 64.6002C49.7508 64.429 49.847 64.1968 49.847 63.9546V51.9397ZM48.934 42.9558H44.7297C45.0991 44.0213 45.7893 44.9463 46.7056 45.6036C47.6219 46.261 48.7193 46.6184 49.847 46.627V43.8688C49.847 43.6267 49.7508 43.3944 49.5796 43.2232C49.4084 43.052 49.1761 42.9558 48.934 42.9558Z" fill="#595959"/>
<path fill-rule="evenodd" clip-rule="evenodd" d="M44.4719 48.4594C43.3343 47.6153 42.4102 46.5163 41.774 45.2506C41.1377 43.9849 40.8069 42.5877 40.8081 41.171C40.8081 36.1559 44.8737 32.0913 49.8878 32.0913C54.902 32.0913 58.9675 36.1569 58.9675 41.171C58.9706 43.0471 58.3899 44.8777 57.3059 46.4088L57.2602 46.4718L62.4999 51.7106L61.1322 53.0773L55.9683 47.9144L55.9044 47.971C54.2464 49.4431 52.1051 50.2545 49.8878 50.2507H49.8467V50.2598C47.7998 50.2507 45.9483 49.5851 44.4719 48.4594ZM57.0338 41.1701C57.0338 43.0653 56.2809 44.8829 54.9408 46.2231C53.6007 47.5632 51.783 48.3161 49.8878 48.3161C47.9926 48.3161 46.175 47.5632 44.8348 46.2231C43.4947 44.8829 42.7418 43.0653 42.7418 41.1701C42.7418 39.2749 43.4947 37.4573 44.8348 36.1171C46.175 34.777 47.9926 34.0241 49.8878 34.0241C51.783 34.0241 53.6007 34.777 54.9408 36.1171C56.2809 37.4573 57.0338 39.2749 57.0338 41.1701Z" fill="#595959"/>
<path d="M33.413 32C33.1709 32 32.9386 32.0962 32.7674 32.2674C32.5962 32.4386 32.5 32.6709 32.5 32.913V63.9547C32.5 64.1969 32.5962 64.4291 32.7674 64.6003C32.9386 64.7715 33.1709 64.8677 33.413 64.8677H37.978C38.2201 64.8677 38.4523 64.7715 38.6235 64.6003C38.7948 64.4291 38.8909 64.1969 38.8909 63.9547V32.913C38.8909 32.6709 38.7948 32.4386 38.6235 32.2674C38.4523 32.0962 38.2201 32 37.978 32H33.413ZM54.4118 56.6508C54.4118 56.4086 54.508 56.1764 54.6792 56.0052C54.8504 55.834 55.0827 55.7378 55.3248 55.7378H59.8898C60.1319 55.7378 60.3641 55.834 60.5353 56.0052C60.7066 56.1764 60.8027 56.4086 60.8027 56.6508V63.9547C60.8027 64.1969 60.7066 64.4291 60.5353 64.6003C60.3641 64.7715 60.1319 64.8677 59.8898 64.8677H55.3248C55.0827 64.8677 54.8504 64.7715 54.6792 64.6003C54.508 64.4291 54.4118 64.1969 54.4118 63.9547V56.6508Z" fill="#595959"/>
</svg>
