<svg width="95" height="96" viewBox="0 0 95 96" fill="none" xmlns="http://www.w3.org/2000/svg">
<circle cx="47.5" cy="48" r="47" stroke="#595959" stroke-dasharray="4 4"/>
<path d="M53.5 52.56C56.8388 53.4852 59.9188 55.169 62.5 57.48L58.75 62.25L52 58.5L53.5 52.56ZM53.5 52.56C51.5456 52.0209 49.5274 51.7485 47.5 51.75C45.4225 51.75 43.4095 52.032 41.5 52.56M41.5 52.56C38.1612 53.4852 35.0812 55.169 32.5 57.48L36.25 62.25L43 58.5L41.5 52.56ZM32.5 51V45H35.878C36.1615 43.899 36.598 42.8595 37.162 41.904L34.7725 39.5145L39.0145 35.2725L41.404 37.662C42.3709 37.0913 43.413 36.6591 44.5 36.378V33H50.5V36.378C51.601 36.6615 52.6405 37.098 53.596 37.662L55.9855 35.2725L60.2275 39.5145L57.838 41.904C58.4035 42.8595 58.8385 43.899 59.122 45H62.5V51" stroke="#595959" stroke-width="3"/>
<path d="M52 48C52 46.8065 51.5259 45.6619 50.682 44.818C49.8381 43.9741 48.6935 43.5 47.5 43.5C46.3065 43.5 45.1619 43.9741 44.318 44.818C43.4741 45.6619 43 46.8065 43 48" stroke="#595959" stroke-width="3"/>
</svg>
