<svg width="178" height="180" viewBox="0 0 178 180" fill="none" xmlns="http://www.w3.org/2000/svg">
<path d="M0 42.6316C-8.24955e-08 48.23 1.09043 53.7737 3.20904 58.946C5.32764 64.1183 8.43293 68.8179 12.3476 72.7767C16.2623 76.7354 20.9097 79.8756 26.0244 82.018C31.1392 84.1605 36.6212 85.2632 42.1573 85.2632C47.6935 85.2632 53.1755 84.1605 58.2903 82.018C63.405 79.8756 68.0524 76.7354 71.9671 72.7767C75.8817 68.8179 78.987 64.1183 81.1056 58.946C83.2243 53.7737 84.3147 48.23 84.3147 42.6316C84.3147 31.325 79.8731 20.4815 71.9671 12.4865C64.061 4.49153 53.3382 0 42.1573 0C30.9765 0 20.2536 4.49153 12.3476 12.4865C4.44156 20.4815 1.66607e-07 31.325 0 42.6316ZM0 137.368C-8.24955e-08 142.967 1.09043 148.511 3.20904 153.683C5.32764 158.855 8.43293 163.555 12.3476 167.514C16.2623 171.472 20.9097 174.612 26.0244 176.755C31.1392 178.897 36.6212 180 42.1573 180C47.6935 180 53.1755 178.897 58.2903 176.755C63.405 174.612 68.0524 171.472 71.9671 167.514C75.8817 163.555 78.987 158.855 81.1056 153.683C83.2243 148.511 84.3147 142.967 84.3147 137.368C84.3147 126.062 79.8731 115.218 71.9671 107.223C64.061 99.2284 53.3382 94.7368 42.1573 94.7368C30.9765 94.7368 20.2536 99.2284 12.3476 107.223C4.44156 115.218 1.66607e-07 126.062 0 137.368ZM93.683 137.368C93.683 148.675 98.1245 159.519 106.031 167.514C113.937 175.508 124.659 180 135.84 180C147.021 180 157.744 175.508 165.65 167.514C173.556 159.519 177.998 148.675 177.998 137.368C177.998 126.062 173.556 115.218 165.65 107.223C157.744 99.2284 147.021 94.7368 135.84 94.7368C124.659 94.7368 113.937 99.2284 106.031 107.223C98.1245 115.218 93.683 126.062 93.683 137.368ZM65.5781 42.6316C65.5781 48.913 63.1105 54.9372 58.7183 59.3788C54.3261 63.8205 48.3689 66.3158 42.1573 66.3158C35.9458 66.3158 29.9886 63.8205 25.5964 59.3788C21.2041 54.9372 18.7366 48.913 18.7366 42.6316C18.7366 36.3501 21.2041 30.326 25.5964 25.8843C29.9886 21.4427 35.9458 18.9474 42.1573 18.9474C48.3689 18.9474 54.3261 21.4427 58.7183 25.8843C63.1105 30.326 65.5781 36.3501 65.5781 42.6316ZM65.5781 137.368C65.5781 143.65 63.1105 149.674 58.7183 154.116C54.3261 158.557 48.3689 161.053 42.1573 161.053C35.9458 161.053 29.9886 158.557 25.5964 154.116C21.2041 149.674 18.7366 143.65 18.7366 137.368C18.7366 131.087 21.2041 125.063 25.5964 120.621C29.9886 116.18 35.9458 113.684 42.1573 113.684C48.3689 113.684 54.3261 116.18 58.7183 120.621C63.1105 125.063 65.5781 131.087 65.5781 137.368ZM159.261 137.368C159.261 143.65 156.794 149.674 152.401 154.116C148.009 158.557 142.052 161.053 135.84 161.053C129.629 161.053 123.672 158.557 119.279 154.116C114.887 149.674 112.42 143.65 112.42 137.368C112.42 131.087 114.887 125.063 119.279 120.621C123.672 116.18 129.629 113.684 135.84 113.684C142.052 113.684 148.009 116.18 152.401 120.621C156.794 125.063 159.261 131.087 159.261 137.368ZM140.759 81.9947L143.363 75.9695C147.911 65.2916 156.255 56.7283 166.746 51.9726L174.747 48.3726C179.084 46.4305 179.084 40.0547 174.747 38.1126L167.196 34.7116C156.43 29.8375 147.932 20.9594 143.466 9.91895L140.796 3.40105C140.399 2.40038 139.715 1.54282 138.832 0.938825C137.948 0.334826 136.907 0.0120411 135.84 0.0120411C134.774 0.0120411 133.732 0.334826 132.849 0.938825C131.966 1.54282 131.282 2.40038 130.884 3.40105L128.215 9.91895C123.748 20.9594 115.251 29.8375 104.485 34.7116L96.9338 38.1126C92.5963 40.0547 92.5963 46.4305 96.9338 48.3726L104.934 51.9726C115.425 56.7283 123.77 65.2916 128.318 75.9695L130.922 81.9947C131.331 82.9722 132.015 83.8063 132.89 84.3927C133.765 84.979 134.791 85.2918 135.84 85.2918C136.89 85.2918 137.916 84.979 138.791 84.3927C139.665 83.8063 140.35 82.9722 140.759 81.9947Z" fill="#FF7E00"/>
</svg>
